{"accessors":[{"bufferView":2,"componentType":5126,"count":65532,"max":[18.083984375,29.4765625,19.2265625],"min":[0,0,3.98828125],"type":"VEC3"},{"bufferView":2,"byteOffset":786384,"componentType":5126,"count":65532,"max":[0.99998152256011963,0.999961256980896,0.99999666213989258],"min":[-1,-0.99999922513961792,-0.99999690055847168],"type":"VEC3"},{"bufferView":1,"componentType":5126,"count":65532,"max":[0.99877899885177612,0.99873298406600952],"min":[0.0012209999840706587,0.0012669999850913882],"type":"VEC2"},{"bufferView":3,"componentType":5126,"count":65532,"max":[0.99931073188781738,0.99999946355819702,0.99999654293060303,1],"min":[-0.99993038177490234,-1,-0.99999898672103882,-1],"type":"VEC4"},{"bufferView":0,"componentType":5125,"count":351165,"max":[65531],"min":[0],"type":"SCALAR"},{"bufferView":2,"byteOffset":1572768,"componentType":5126,"count":65532,"max":[14.91796875,29.314453125,14.9580078125],"min":[7.18798828125,0.248046875,2.50390625],"type":"VEC3"},{"bufferView":2,"byteOffset":2359152,"componentType":5126,"count":65532,"max":[0.99999725818634033,0.99999153614044189,0.99998438358306885],"min":[-1,-0.99999922513961792,-0.999988853931427],"type":"VEC3"},{"bufferView":1,"byteOffset":524256,"componentType":5126,"count":65532,"max":[0.99877899885177612,0.99645298719406128],"min":[0.0012209999840706587,0.0012669999850913882],"type":"VEC2"},{"bufferView":3,"byteOffset":1048512,"componentType":5126,"count":65532,"max":[0.99997055530548096,0.99999892711639404,0.9999879002571106,1],"min":[-0.99995529651641846,-0.99942320585250854,-0.99998337030410767,-1],"type":"VEC4"},{"bufferView":0,"byteOffset":1404660,"componentType":5125,"count":350220,"max":[65531],"min":[0],"type":"SCALAR"},{"bufferView":2,"byteOffset":3145536,"componentType":5126,"count":65532,"max":[14.93212890625,29.248046875,12.740234375],"min":[0.888671875,0.103515625,0],"type":"VEC3"},{"bufferView":2,"byteOffset":3931920,"componentType":5126,"count":65532,"max":[0.99999034404754639,0.99995309114456177,0.99986952543258667],"min":[-1,-0.99993187189102173,-0.99999690055847168],"type":"VEC3"},{"bufferView":1,"byteOffset":1048512,"componentType":5126,"count":65532,"max":[0.99877899885177612,0.99493300914764404],"min":[0.0012209999840706587,0.0012669999850913882],"type":"VEC2"},{"bufferView":3,"byteOffset":2097024,"componentType":5126,"count":65532,"max":[0.99981594085693359,1,1,1],"min":[-0.99999600648880005,-1,-0.99995267391204834,-1],"type":"VEC4"},{"bufferView":0,"byteOffset":2805540,"componentType":5125,"count":339210,"max":[65531],"min":[0],"type":"SCALAR"},{"bufferView":2,"byteOffset":4718304,"componentType":5126,"count":34015,"max":[13.1298828125,29.3642578125,7.533203125],"min":[1.9423828125,2.9091796875,0.8095703125],"type":"VEC3"},{"bufferView":2,"byteOffset":5126484,"componentType":5126,"count":34015,"max":[0.99999988079071045,0.99774861335754395,0.99971073865890503],"min":[-1,-0.9999852180480957,-0.99988538026809692],"type":"VEC3"},{"bufferView":1,"byteOffset":1572768,"componentType":5126,"count":34015,"max":[0.99877899885177612,0.99556702375411987],"min":[0.0034179999493062496,0.0012669999850913882],"type":"VEC2"},{"bufferView":3,"byteOffset":3145536,"componentType":5126,"count":34015,"max":[0.98942345380783081,0.99999994039535522,0.9981347918510437,1],"min":[-0.99963808059692383,-0.99997508525848389,-0.99998015165328979,-1],"type":"VEC4"},{"bufferView":0,"byteOffset":4162380,"componentType":5125,"count":187701,"max":[34014],"min":[0],"type":"SCALAR"}],"asset":{"generator":"Sketchfab (OSG glTF plugin)","version":"2.0"},"bufferViews":[{"buffer":0,"byteLength":4913184,"byteOffset":0,"name":"ScalarBufferView","target":34962},{"buffer":0,"byteLength":1844888,"byteOffset":4913184,"byteStride":8,"name":"Vec2BufferView","target":34962},{"buffer":0,"byteLength":5534664,"byteOffset":6758072,"byteStride":12,"name":"Vec3BufferView","target":34962},{"buffer":0,"byteLength":3689776,"byteOffset":12292736,"byteStride":16,"name":"Vec4BufferView","target":34962}],"buffers":[{"byteLength":15982512,"uri":"scene.bin"}],"images":[{"uri":"textures\/Material_0_baseColor.jpeg"}],"materials":[{"doubleSided":true,"name":"Material_0","pbrMetallicRoughness":{"baseColorFactor":[1,1,1,1],"baseColorTexture":{"index":0,"texCoord":0},"metallicFactor":0,"roughnessFactor":0.53487042679999997}}],"meshes":[{"primitives":[{"attributes":{"NORMAL":1,"POSITION":0,"TANGENT":3,"TEXCOORD_0":2},"indices":4,"material":0,"mode":4},{"attributes":{"NORMAL":6,"POSITION":5,"TANGENT":8,"TEXCOORD_0":7},"indices":9,"material":0,"mode":4},{"attributes":{"NORMAL":11,"POSITION":10,"TANGENT":13,"TEXCOORD_0":12},"indices":14,"material":0,"mode":4},{"attributes":{"NORMAL":16,"POSITION":15,"TANGENT":18,"TEXCOORD_0":17},"indices":19,"material":0,"mode":4}]}],"nodes":[{"children":[1],"name":"RootNode (gltf orientation matrix)","rotation":[-0.70710678118654746,-0,-0,0.70710678118654757]},{"children":[2],"name":"RootNode (model correction matrix)"},{"children":[3],"matrix":[1,0,0,0,0,1,0,0,0,0,1,0,-8027.18896484375,12661.1416015625,-10791.0498046875,1],"name":"skfb_offset"},{"children":[4],"name":""},{"mesh":0,"name":""}],"samplers":[{"magFilter":9729,"minFilter":9987,"wrapS":10497,"wrapT":10497}],"scene":0,"scenes":[{"name":"OSG_Scene","nodes":[0]}],"textures":[{"sampler":0,"source":0}]}
