{"accessors":[{"bufferView":2,"componentType":5126,"count":65532,"max":[2.4965999126434326,2.6191999912261963,3.5611999034881592],"min":[-0.44170001149177551,-0.38730001449584961,-1.5565999746322632],"type":"VEC3"},{"bufferView":2,"byteOffset":786384,"componentType":5126,"count":65532,"max":[0.99999654293060303,0.99998259544372559,0.99988651275634766],"min":[-0.99994468688964844,-0.99996793270111084,-0.99970823526382446],"type":"VEC3"},{"bufferView":1,"componentType":5126,"count":65532,"max":[0.97960001230239868,0.99260002374649048],"min":[0.0031000000890344381,0.042599998414516449],"type":"VEC2"},{"bufferView":3,"componentType":5126,"count":65532,"max":[0.99187290668487549,0.99953842163085938,0.90142089128494263,1],"min":[-0.99740225076675415,-0.999900221824646,-0.9999995231628418,-1],"type":"VEC4"},{"bufferView":0,"componentType":5125,"count":360687,"max":[65531],"min":[0],"type":"SCALAR"},{"bufferView":2,"byteOffset":1572768,"componentType":5126,"count":43624,"max":[2.4688999652862549,2.636199951171875,2.650399923324585],"min":[-0.44170001149177551,-0.25069999694824219,-1.5671000480651855],"type":"VEC3"},{"bufferView":2,"byteOffset":2096256,"componentType":5126,"count":43624,"max":[0.99993431568145752,0.99999940395355225,0.99116301536560059],"min":[-0.99999332427978516,-0.99990475177764893,-0.99979108572006226],"type":"VEC3"},{"bufferView":1,"byteOffset":524256,"componentType":5126,"count":43624,"max":[0.99559998512268066,0.98229998350143433],"min":[0.12479999661445618,0.0030000000260770321],"type":"VEC2"},{"bufferView":3,"byteOffset":1048512,"componentType":5126,"count":43624,"max":[0.98773926496505737,0.99991989135742188,0.81677711009979248,1],"min":[-0.99767041206359863,-0.999900221824646,-0.99999451637268066,-1],"type":"VEC4"},{"bufferView":0,"byteOffset":1442748,"componentType":5125,"count":211797,"max":[43623],"min":[0],"type":"SCALAR"}],"asset":{"generator":"Sketchfab (OSG glTF plugin)","version":"2.0"},"bufferViews":[{"buffer":0,"byteLength":2289936,"byteOffset":0,"name":"ScalarBufferView","target":34962},{"buffer":0,"byteLength":873248,"byteOffset":2289936,"byteStride":8,"name":"Vec2BufferView","target":34962},{"buffer":0,"byteLength":2619744,"byteOffset":3163184,"byteStride":12,"name":"Vec3BufferView","target":34962},{"buffer":0,"byteLength":1746496,"byteOffset":5782928,"byteStride":16,"name":"Vec4BufferView","target":34962}],"buffers":[{"byteLength":7529424,"uri":"scene.bin"}],"extensionsRequired":["KHR_materials_pbrSpecularGlossiness"],"extensionsUsed":["KHR_materials_pbrSpecularGlossiness"],"images":[{"uri":"textures\/TiberiusEmory_diffuse.jpeg"},{"uri":"textures\/TiberiusEmory_emissive.jpeg"}],"materials":[{"doubleSided":false,"emissiveFactor":[0,0,0],"emissiveTexture":{"index":1,"texCoord":0},"extensions":{"KHR_materials_pbrSpecularGlossiness":{"diffuseFactor":[0.89000000000000001,0.89000000000000001,0.89000000000000001,1],"diffuseTexture":{"index":0,"texCoord":0},"glossinessFactor":0,"specularFactor":[0,0,0]}},"name":"TiberiusEmory","occlusionFactor":1}],"meshes":[{"name":"default","primitives":[{"attributes":{"NORMAL":1,"POSITION":0,"TANGENT":3,"TEXCOORD_0":2},"indices":4,"material":0,"mode":4},{"attributes":{"NORMAL":6,"POSITION":5,"TANGENT":8,"TEXCOORD_0":7},"indices":9,"material":0,"mode":4}]}],"nodes":[{"children":[1],"name":"RootNode (gltf orientation matrix)","rotation":[-0.70710678118654746,-0,-0,0.70710678118654757]},{"children":[2],"name":"RootNode (model correction matrix)"},{"children":[3],"name":"Tiberiu 6.obj.cleaner.gles"},{"mesh":0,"name":"default"}],"samplers":[{"magFilter":9729,"minFilter":9987,"wrapS":10497,"wrapT":10497}],"scene":0,"scenes":[{"name":"OSG_Scene","nodes":[0]}],"textures":[{"sampler":0,"source":0},{"sampler":0,"source":1}]}
