{"accessors":[{"bufferView":2,"componentType":5126,"count":256,"max":[-2.0575668811798096,4.1673588752746582,1.0500220060348511],"min":[-4.1544790267944336,-4.7019338607788086,-1.8214370012283325],"type":"VEC3"},{"bufferView":2,"byteOffset":3072,"componentType":5126,"count":256,"max":[1,1,1],"min":[-1,-1,-1],"type":"VEC3"},{"bufferView":1,"componentType":5126,"count":256,"max":[0.98350000381469727,0.97689998149871826],"min":[0.0023000000510364771,0.031399998813867569],"type":"VEC2"},{"bufferView":3,"componentType":5126,"count":256,"max":[0.8321000337600708,0.99993991851806641,0.99538505077362061,1],"min":[-0.92792582511901855,-0.97587114572525024,-0.9234052300453186,-1],"type":"VEC4"},{"bufferView":0,"componentType":5125,"count":984,"max":[255],"min":[0],"type":"SCALAR"},{"bufferView":2,"byteOffset":6144,"componentType":5126,"count":1272,"max":[3.9084649085998535,5.2080268859863281,2.6541409492492676],"min":[-3.9084639549255371,-6.3382511138916016,-1.3458600044250488],"type":"VEC3"},{"bufferView":2,"byteOffset":21408,"componentType":5126,"count":1272,"max":[1,1,1],"min":[-1,-1,-1],"type":"VEC3"},{"bufferView":1,"byteOffset":2048,"componentType":5126,"count":1272,"max":[0.99610000848770142,0.99459999799728394],"min":[0.0034000000450760126,0.0054999999701976776],"type":"VEC2"},{"bufferView":3,"byteOffset":4096,"componentType":5126,"count":1272,"max":[1,0.99999797344207764,0.99999576807022095,1],"min":[-1,-0.9992566704750061,-1,-1],"type":"VEC4"},{"bufferView":0,"byteOffset":3936,"componentType":5125,"count":3654,"max":[1271],"min":[0],"type":"SCALAR"},{"bufferView":2,"byteOffset":36672,"componentType":5126,"count":256,"max":[4.1544771194458008,4.1673588752746582,1.0500220060348511],"min":[2.0575659275054932,-4.7019338607788086,-1.8214370012283325],"type":"VEC3"},{"bufferView":2,"byteOffset":39744,"componentType":5126,"count":256,"max":[1,1,1],"min":[-1,-1,-1],"type":"VEC3"},{"bufferView":1,"byteOffset":12224,"componentType":5126,"count":256,"max":[0.98350000381469727,0.97689998149871826],"min":[0.0023000000510364771,0.031399998813867569],"type":"VEC2"},{"bufferView":3,"byteOffset":24448,"componentType":5126,"count":256,"max":[0.92792582511901855,0.99385446310043335,0.99538511037826538,1],"min":[-0.83210021257400513,-0.97587114572525024,-0.9234052300453186,-1],"type":"VEC4"},{"bufferView":0,"byteOffset":18552,"componentType":5125,"count":984,"max":[255],"min":[0],"type":"SCALAR"}],"asset":{"generator":"Sketchfab (OSG glTF plugin)","version":"2.0"},"bufferViews":[{"buffer":0,"byteLength":22488,"byteOffset":0,"name":"ScalarBufferView","target":34962},{"buffer":0,"byteLength":14272,"byteOffset":22488,"byteStride":8,"name":"Vec2BufferView","target":34962},{"buffer":0,"byteLength":42816,"byteOffset":36760,"byteStride":12,"name":"Vec3BufferView","target":34962},{"buffer":0,"byteLength":28544,"byteOffset":79576,"byteStride":16,"name":"Vec4BufferView","target":34962}],"buffers":[{"byteLength":108120,"uri":"scene.bin"}],"extensionsRequired":["KHR_materials_pbrSpecularGlossiness"],"extensionsUsed":["KHR_materials_pbrSpecularGlossiness"],"images":[{"uri":"textures\/rx7_rx9_rx7_color.png.001_diffuse.png"},{"uri":"textures\/rx7_diffuse.png"},{"uri":"textures\/rx7_rx9_wheels_color.png.002_diffuse.png"}],"materials":[{"doubleSided":true,"emissiveFactor":[0,0,0],"extensions":{"KHR_materials_pbrSpecularGlossiness":{"diffuseFactor":[1,1,1,1],"diffuseTexture":{"index":1,"texCoord":0},"glossinessFactor":0,"specularFactor":[1,1,1]}},"name":"rx7","occlusionFactor":1},{"doubleSided":true,"extensions":{"KHR_materials_pbrSpecularGlossiness":{"diffuseFactor":[1,1,1,1],"diffuseTexture":{"index":0,"texCoord":0},"glossinessFactor":0,"specularFactor":[1,1,1]}},"name":"rx7_rx9_rx7_color.png.001"},{"doubleSided":true,"emissiveFactor":[0,0,0],"extensions":{"KHR_materials_pbrSpecularGlossiness":{"diffuseFactor":[1,1,1,1],"diffuseTexture":{"index":2,"texCoord":0},"glossinessFactor":0,"specularFactor":[1,1,1]}},"name":"rx7_rx9_wheels_color.png.002","occlusionFactor":1}],"meshes":[{"name":"rx7","primitives":[{"attributes":{"NORMAL":1,"POSITION":0,"TANGENT":3,"TEXCOORD_0":2},"indices":4,"material":0,"mode":4},{"attributes":{"NORMAL":6,"POSITION":5,"TANGENT":8,"TEXCOORD_0":7},"indices":9,"material":1,"mode":4},{"attributes":{"NORMAL":11,"POSITION":10,"TANGENT":13,"TEXCOORD_0":12},"indices":14,"material":2,"mode":4}]}],"nodes":[{"children":[1],"name":"RootNode (gltf orientation matrix)","rotation":[-0.70710678118654746,-0,-0,0.70710678118654757]},{"children":[2],"name":"RootNode (model correction matrix)"},{"children":[3],"name":"Rx7.obj.cleaner.materialmerger.gles"},{"mesh":0,"name":"rx7"}],"samplers":[{"magFilter":9729,"minFilter":9987,"wrapS":10497,"wrapT":10497}],"scene":0,"scenes":[{"name":"OSG_Scene","nodes":[0]}],"textures":[{"sampler":0,"source":0},{"sampler":0,"source":1},{"sampler":0,"source":2}]}
